<svg width="329" height="70" viewBox="0 0 329 70" fill="none" xmlns="http://www.w3.org/2000/svg">
<path d="M37.4 70H52.4L37.4 44C46.1 40.4 50.7 32.4 50.7 23C50.7 10.2 42 -4.76837e-06 26.4 -4.76837e-06H0.5V70H13.8V46H23.5L37.4 70ZM13.8 12.8H26.1C32.7 12.8 36.9 17 36.9 23C36.9 29 32.7 33.3 26.1 33.3H13.8V12.8ZM174.584 -4.76837e-06H123.684V12.8H142.484V70H155.784V12.8H174.584V-4.76837e-06Z" fill="#A45A49"/>
<path d="M104.587 70H119.687L94.0867 -4.76837e-06H80.4867L54.8867 70H69.9867L75.3867 54.2H99.0867L104.587 70ZM79.8867 41.5L87.2867 20L94.6867 41.5H79.8867Z" fill="#B3DFD3"/>
<path d="M224.317 -4.76837e-06V45.4L196.117 -4.76837e-06H183.117V70H196.417V24.6L224.517 70H237.617V-4.76837e-06H224.317Z" fill="#EFC764"/>
<path d="M248.645 -4.76837e-06V70H261.945V-4.76837e-06H248.645Z" fill="#97D4D9"/>
<path d="M312.661 70H328.961L301.261 31.1L327.461 -4.76837e-06H310.061L286.261 28.2V-4.76837e-06H272.961V70H286.261V48.8L292.361 41.6L312.661 70Z" fill="#FEAFBE"/>
</svg>
